<?xml version="1.0" encoding="UTF-8"?>
<svg id="Layer_2" data-name="Layer 2" xmlns="http://www.w3.org/2000/svg" viewBox="0 0 109.87 45.49">
  <g id="Layer_1-2" data-name="Layer 1">
    <path d="M105.8.64c1.14-.86,2.29-.86,3.43,0,.86,1.15.86,2.15,0,3l-6.44,6.01,3.86,3.86c.86-.57,1.72-.57,2.58,0,.57.86.57,1.72,0,2.58.57,1.15.57,2.15,0,3-.86.58-1.72.58-2.58,0l-3.86,3.43,3.86,3.86c.86-.57,1.72-.57,2.58,0,.57.86.57,1.72,0,2.58.57,1.15.57,2.15,0,3-.86.58-1.72.58-2.58,0l-3.86,3.43,6.44,6.01c.86,1.15.86,2.29,0,3.43-1.15.86-2.29.86-3.43,0l-6.01-6.44-3.43,3.86c.57.86.57,1.72,0,2.58-.86.58-1.72.58-2.58,0-1.15.58-2.15.58-3,0-.58-.86-.72-1.72-.43-2.58h.43l-3.86-3.86-3.43,3.86c.57.86.57,1.72,0,2.58-.86.58-1.72.58-2.58,0-1.15.58-2.15.58-3,0-.58-.86-.72-1.72-.43-2.58h.43l-3.86-3.86-3.43,3.86c.57.86.57,1.72,0,2.58-.86.58-1.72.58-2.57,0-1.15.58-2.15.58-3,0-.58-.86-.72-1.72-.43-2.58h.43l-3.86-3.86-3.43,3.86c.57.86.57,1.72,0,2.58-.86.58-1.72.58-2.57,0-1.15.58-2.15.58-3,0-.58-.86-.72-1.72-.43-2.58h.43l-3.86-3.86-3.43,3.86c.57.86.57,1.72,0,2.58-.86.58-1.72.58-2.58,0-1.15.58-2.15.58-3,0-.58-.86-.72-1.72-.43-2.58h.43l-3.86-3.86-3.43,3.86c.57.86.57,1.72,0,2.58-.86.58-1.72.58-2.58,0-1.15.58-2.15.58-3,0-.58-.86-.72-1.72-.43-2.58h.43l-3.86-3.86-3.43,3.86c.57.86.57,1.72,0,2.58-.86.58-1.72.58-2.58,0-1.15.58-2.15.58-3,0-.58-.86-.72-1.72-.43-2.58h.43l-3.86-3.86-6.01,6.44c-.86.86-1.86.86-3,0-.86-1.14-.86-2.29,0-3.43l6.01-6.01-3.43-3.43c-.86.58-1.72.58-2.58,0-.58-.86-.72-1.72-.43-2.58h.43c-.58-1.14-.58-2.15,0-3,.86-.57,1.72-.57,2.58,0l3.43-3.86-3.43-3.43c-.86.58-1.72.58-2.58,0-.58-.86-.72-1.72-.43-2.58h.43c-.58-1.14-.58-2.15,0-3,.86-.57,1.72-.57,2.58,0l3.43-3.86L.64,3.65C-.21,2.79-.21,1.79.64.64,1.78-.21,2.79-.21,3.65.64l6.01,6.01,3.86-3.43c-.58-.86-.58-1.72,0-2.58.86-.57,1.72-.57,2.58,0,1.14-.57,2.15-.57,3,0,.57.86.57,1.72,0,2.58l3.43,3.43,3.86-3.43c-.58-.86-.58-1.72,0-2.58.86-.57,1.72-.57,2.57,0,1.14-.57,2.15-.57,3,0,.57.86.57,1.72,0,2.58l3.43,3.43,3.86-3.43c-.58-.86-.58-1.72,0-2.58.86-.57,1.72-.57,2.57,0,1.14-.57,2.15-.57,3,0,.57.86.57,1.72,0,2.58l3.43,3.43,3.86-3.43c-.58-.86-.58-1.72,0-2.58.86-.57,1.72-.57,2.57,0,1.14-.57,2.15-.57,3,0,.57.86.57,1.72,0,2.58l3.43,3.43,3.86-3.43c-.58-.86-.58-1.72,0-2.58.86-.57,1.72-.57,2.58,0,1.14-.57,2.15-.57,3,0,.57.86.57,1.72,0,2.58l3.43,3.43,3.86-3.43c-.58-.86-.58-1.72,0-2.58.86-.57,1.72-.57,2.58,0,1.14-.57,2.15-.57,3,0,.57.86.57,1.72,0,2.58l3.43,3.43,3.86-3.43c-.58-.86-.58-1.72,0-2.58.86-.57,1.72-.57,2.57,0,1.14-.57,2.15-.57,3,0,.57.86.57,1.72,0,2.58l3.43,3.43,6.01-6.01ZM9.66,12.66l-3.43,3.43,3.43,3.43,3.43-3.43-3.43-3.43ZM9.66,25.54l-3.43,3.43,3.43,3.43,3.43-3.43-3.43-3.43ZM12.66,9.66l3.43,3.43,3.43-3.43-3.43-3.43-3.43,3.43ZM12.66,22.53l3.43,3.43,3.43-3.43-3.43-3.43-3.43,3.43ZM12.66,35.41l3.43,3.43,3.43-3.43-3.43-3.43-3.43,3.43ZM22.53,12.66l-3.43,3.43,3.43,3.43,3.43-3.43-3.43-3.43ZM22.53,25.54l-3.43,3.43,3.43,3.43,3.43-3.43-3.43-3.43ZM25.54,9.66l3.43,3.43,3.43-3.43-3.43-3.43-3.43,3.43ZM25.54,22.53l3.43,3.43,3.43-3.43-3.43-3.43-3.43,3.43ZM25.54,35.41l3.43,3.43,3.43-3.43-3.43-3.43-3.43,3.43ZM35.41,12.66l-3.43,3.43,3.43,3.43,3.43-3.43-3.43-3.43ZM35.41,25.54l-3.43,3.43,3.43,3.43,3.43-3.43-3.43-3.43ZM38.41,9.66l3.43,3.43,3.43-3.43-3.43-3.43-3.43,3.43ZM38.41,22.53l3.43,3.43,3.43-3.43-3.43-3.43-3.43,3.43ZM38.41,35.41l3.43,3.43,3.43-3.43-3.43-3.43-3.43,3.43ZM48.28,12.66l-3.43,3.43,3.43,3.43,3.43-3.43-3.43-3.43ZM48.28,25.54l-3.43,3.43,3.43,3.43,3.43-3.43-3.43-3.43ZM51.29,9.66l3.43,3.43,3.43-3.43-3.43-3.43-3.43,3.43ZM51.29,22.53l3.43,3.43,3.43-3.43-3.43-3.43-3.43,3.43ZM51.29,35.41l3.43,3.43,3.43-3.43-3.43-3.43-3.43,3.43ZM61.16,12.66l-3.43,3.43,3.43,3.43,3.43-3.43-3.43-3.43ZM61.16,25.54l-3.43,3.43,3.43,3.43,3.43-3.43-3.43-3.43ZM64.16,9.66l3.43,3.43,3.43-3.43-3.43-3.43-3.43,3.43ZM64.16,22.53l3.43,3.43,3.43-3.43-3.43-3.43-3.43,3.43ZM64.16,35.41l3.43,3.43,3.43-3.43-3.43-3.43-3.43,3.43ZM74.04,12.66l-3.43,3.43,3.43,3.43,3.43-3.43-3.43-3.43ZM74.04,25.54l-3.43,3.43,3.43,3.43,3.43-3.43-3.43-3.43ZM77.04,9.66l3.43,3.43,3.43-3.43-3.43-3.43-3.43,3.43ZM77.04,22.53l3.43,3.43,3.43-3.43-3.43-3.43-3.43,3.43ZM77.04,35.41l3.43,3.43,3.43-3.43-3.43-3.43-3.43,3.43ZM86.91,12.66l-3.43,3.43,3.43,3.43,3.43-3.43-3.43-3.43ZM86.91,25.54l-3.43,3.43,3.43,3.43,3.43-3.43-3.43-3.43ZM89.92,9.66l3.43,3.43,3.43-3.43-3.43-3.43-3.43,3.43ZM89.92,22.53l3.43,3.43,3.43-3.43-3.43-3.43-3.43,3.43ZM89.92,35.41l3.43,3.43,3.43-3.43-3.43-3.43-3.43,3.43ZM99.79,12.66l-3.43,3.43,3.43,3.43,3.43-3.43-3.43-3.43ZM99.79,25.54l-3.43,3.43,3.43,3.43,3.43-3.43-3.43-3.43Z"/>
  </g>
</svg>