<?xml version="1.0" encoding="UTF-8"?>
<svg id="Layer_2" data-name="Layer 2" xmlns="http://www.w3.org/2000/svg" viewBox="0 0 83.91 116.1">
  <g id="Layer_1-2" data-name="Layer 1">
    <path d="M3.43,3.43L.17,6.7l-.02,6.32,3.29,3.29L.12,19.62l-.02,6.24,3.58,3.58c-.03.06-.06.12-.09.18h-.16c-.02.07-.03.14-.04.21L.08,32.76l-.02,6.14,3.37,3.37L.04,45.67l-.02,6.07,3.41,3.41-3.43,3.43.02,6.03,3.66,3.66c-.03.06-.06.12-.09.18h-.16c-.02.07-.03.14-.04.21L.04,71.64l.02,6.11,3.37,3.37-3.35,3.35.02,6.2,3.33,3.33-1.5,1.5-1.8,1.6.02,6.48,3.18,3.18-3.16,3.16.02,6.18,3.7-2.12-.88-.88,2.59-2.58c.45.02.87-.12,1.26-.44l1.4,1.4,3.96-2.27-2.33-2.33,3.1-3.33,3.1,3.33-.26.26,15.08-8.64,1.5-1.5.41.41,3.96-2.27-1.25-1.25,3.33-3.33,2.15,2.15,3.82-2.19-2.97-2.97,3.43-3.43,3.43,3.43-1.72,1.72,3.57-2.04,33.35-29.19-3.15-2.75-3.29,3.29-3.43-3.43,3.06-3.06-3.2-2.8-2.86,2.86-3.43-3.43,2.64-2.64-3.2-2.8-2.44,2.44-3.43-3.43,2.21-2.21-3.2-2.8-2.01,2.01-3.43-3.43,1.78-1.78-3.1-2.72-1.68,1.49-3.33-3.33,1.11-1.25-4-2.29-.22.22-.8-.8-15.35-8.8-3.16,3.16-3.43-3.43,2.23-2.23-3.82-2.19-1.41,1.41-3.43-3.43.48-.48L.19,0v.19s3.24,3.25,3.24,3.25ZM3,22.75l3.22-3.22c.1-.04.19-.09.29-.15l3.36,3.36-3.43,3.43-3.43-3.43ZM19.43,71.37c.13.07.26.12.39.17l3.14,3.14-3.43,3.43-3.43-3.43,3-3,.33-.31ZM16.09,61.59l1.72-1.72,1.82-1.62,3.33,3.33-3.42,3.42-.44-.41-3-3ZM22.82,68.54c-.03-.09-.07-.18-.11-.27l3.26-3.67,3.75,3.75-.13.11h-.19c-.02.07-.03.14-.04.21l-3.39,3.01-3.14-3.14ZM28.97,61.59l3.43-3.43,3.43,3.43-3.43,3.43-3.43-3.43ZM35.41,55.16l3.43-3.43,3.43,3.43-3.43,3.43-3.43-3.43ZM32.4,52.15l-3.43-3.43,3.43-3.43,3.43,3.43-3.43,3.43ZM29.4,55.16l-3.43,3.43-3.43-3.43,3.43-3.43,3.43,3.43ZM19.53,52.15l-3.43-3.43,1.72-1.72,1.82-1.62,3.33,3.33-3.43,3.43ZM12.98,45.61l-3.33-3.33,3.33-3.33,3.33,3.33-3.33,3.33ZM16.31,55.16l-3.33,3.33-3.33-3.33,3.33-3.33,3.33,3.33ZM16.29,68.26l-3.31,3.31-3.31-3.31,3.31-3.55,3.31,3.55ZM16.31,81.12l-3.33,3.33-3.33-3.33,3.33-3.33,3.33,3.33ZM17.81,85.84l1.82-1.61,3.33,3.33-3.14,3.14c-.14.05-.27.11-.41.18l-3.32-3.32,1.72-1.72ZM22.53,81.12l3.43-3.43,3.43,3.43-3.43,3.43-3.43-3.43ZM28.97,74.68l3.43-3.43,3.43,3.43-3.43,3.43-3.43-3.43ZM35.51,68.35l3.33-3.75,3.75,3.75-.13.11h-.19c-.02.07-.03.14-.04.21l-3.39,3.01-3.33-3.33ZM41.84,61.59l3.43-3.43,3.43,3.43-3.43,3.43-3.43-3.43ZM51.72,64.6l3.75,3.75-.13.11h-.19c-.02.07-.03.14-.04.21l-3.39,3.01-3.33-3.33,3.33-3.75ZM54.72,61.59l3.43-3.43,3.43,3.43-3.43,3.43-3.43-3.43ZM51.72,58.59l-3.43-3.43,3.43-3.43,3.43,3.43-3.43,3.43ZM45.28,52.15l-3.43-3.43,3.43-3.43,3.43,3.43-3.43,3.43ZM38.84,45.71l-3.43-3.43,3.43-3.43,3.43,3.43-3.43,3.43ZM32.4,39.28l-3.43-3.43,3.43-3.43,3.43,3.43-3.43,3.43ZM29.4,42.28l-3.43,3.43-3.43-3.43,3.43-3.43,3.43,3.43ZM19.53,39.28l-3.43-3.43,3-3,.33-.31c.13.06.25.12.38.17l3.15,3.15-3.43,3.43ZM12.98,32.73l-3.31-3.31,3.31-3.55,3.31,3.55-3.31,3.31ZM3,35.84l3.05-3.05c.19-.04.37-.12.54-.23l3.28,3.28-3.43,3.43-3.43-3.43ZM3,48.72l3.22-3.22c.1-.04.19-.09.29-.15l3.36,3.36-3.43,3.43-3.43-3.43ZM3,61.59l3.22-3.22c.1-.04.19-.09.29-.15l3.36,3.36-3.43,3.43-3.43-3.43ZM3,74.68l3.04-3.04c.19-.04.37-.12.55-.23l3.27,3.27-3.43,3.43-3.43-3.43ZM3,87.56l3.22-3.22c.1-.04.19-.09.29-.15l3.36,3.36-3.27,3.27c-.18-.11-.36-.19-.55-.23l-3.04-3.04ZM6.44,103.65l-3.33-3.33,3.11-3.11c.1-.04.19-.09.29-.15l3.25,3.25-3.33,3.33ZM12.98,97.11l-3.22-3.22,3.22-3.22,3.22,3.22-3.22,3.22ZM19.53,103.65l-3.33-3.33,1.61-1.61,1.82-1.61,3.23,3.23-3.33,3.33ZM27.9,95.5l-1.93,1.72-3.33-3.33,3.33-3.33,3.43,3.43-1.5,1.5ZM32.4,90.99l-3.43-3.43,3.43-3.43,3.43,3.43-3.43,3.43ZM38.84,84.56l-3.43-3.43,3.43-3.43,3.43,3.43-3.43,3.43ZM41.84,74.68l3.43-3.43,3.43,3.43-3.43,3.43-3.43-3.43ZM51.72,84.56l-3.43-3.43,3.43-3.43,3.43,3.43-3.43,3.43ZM58.15,78.12l-3.43-3.43,3.43-3.43,3.43,3.43-3.43,3.43ZM68.21,68.46h-.19c-.02.07-.03.14-.04.21l-3.39,3.01-3.33-3.33,3.33-3.75,3.75,3.75-.13.11ZM74.46,61.59l-3.43,3.43-3.43-3.43,3.43-3.43,3.43,3.43ZM68.03,55.16l-3.43,3.43-3.43-3.43,3.43-3.43,3.43,3.43ZM61.59,48.72l-3.43,3.43-3.43-3.43,3.43-3.43,3.43,3.43ZM55.15,42.28l-3.43,3.43-3.43-3.43,3.43-3.43,3.43,3.43ZM48.71,35.84l-3.43,3.43-3.43-3.43,3.43-3.43,3.43,3.43ZM42.59,29.5l-.12.11h-.19c-.02.07-.03.14-.04.21l-3.39,3.01-3.33-3.33,3.33-3.75,3.75,3.75ZM32.4,19.31l3.43,3.43-3.43,3.43-3.43-3.43,3.43-3.43ZM29.72,29.5l-.13.11h-.19c-.02.07-.03.14-.04.21l-3.39,3.01-3.14-3.14c-.03-.09-.07-.19-.12-.28l3.26-3.67,3.75,3.75ZM19.63,19.41l3.33,3.33-3.42,3.42-.44-.41-3-3,1.72-1.72,1.82-1.62ZM16.31,16.31l-3.33,3.33-3.33-3.33,3.33-3.33,3.33,3.33ZM6.51,6.51l3.36,3.36-3.43,3.43-3.43-3.43,3.22-3.22c.1-.04.19-.09.29-.15Z"/>
  </g>
</svg>