<?xml version="1.0" encoding="UTF-8"?>
<svg id="Layer_2" data-name="Layer 2" xmlns="http://www.w3.org/2000/svg" viewBox="0 0 109.87 109.87">
  <g id="Layer_1-2" data-name="Layer 1">
    <path d="M102.79,67.6l3.86-3.43c.86.58,1.72.58,2.58,0,.57-.86.57-1.86,0-3,.57-.86.57-1.72,0-2.57-.86-.57-1.72-.57-2.58,0l-3.86-3.86,3.86-3.43c.86.58,1.72.58,2.58,0,.57-.86.57-1.86,0-3,.57-.86.57-1.72,0-2.57-.86-.57-1.72-.57-2.58,0l-3.86-3.86,6.44-6.01c.86-.86.86-1.86,0-3-1.15-.86-2.29-.86-3.43,0l-6.01,6.01-3.43-3.43c.57-.86.57-1.72,0-2.58-.86-.57-1.86-.57-3,0-.86-.57-1.72-.57-2.57,0-.58.86-.58,1.72,0,2.58l-3.86,3.43-3.43-3.43c.57-.86.57-1.72,0-2.58-.86-.57-1.86-.57-3,0-.86-.57-1.72-.57-2.58,0-.58.86-.58,1.72,0,2.58l-3.84,3.41-3.03-3.41,3.43-3.43c.86.57,1.72.57,2.57,0,.57-.86.57-1.86,0-3,.57-.86.57-1.72,0-2.58-.86-.58-1.72-.58-2.57,0l-3.43-3.86,3.43-3.43c.86.57,1.72.57,2.57,0,.57-.86.57-1.86,0-3,.57-.86.57-1.72,0-2.58-.86-.58-1.72-.58-2.57,0l-3.43-3.86,6.01-6.01c.86-.86.86-1.86,0-3-1.15-.86-2.15-.86-3,0l-6.01,6.01-3.86-3.43c.57-.86.57-1.72,0-2.58-.86-.58-1.86-.58-3,0V.21c-.86-.29-1.72-.15-2.58.43-.58.86-.58,1.72,0,2.58l-3.43,3.43-3.86-3.43c.57-.86.57-1.72,0-2.58-.86-.58-1.86-.58-3,0V.21c-.86-.29-1.72-.15-2.58.43-.58.86-.58,1.72,0,2.58l-3.43,3.43-6.01-6.01c-1.15-.86-2.29-.86-3.43,0-.86,1.14-.86,2.15,0,3l6.44,6.01-3.86,3.86v-.43c-.86-.29-1.72-.15-2.58.43-.58.86-.58,1.86,0,3-.58.86-.58,1.72,0,2.58.86.57,1.72.57,2.58,0l3.86,3.43-3.86,3.86v-.43c-.86-.29-1.72-.15-2.58.43-.58.86-.58,1.86,0,3-.58.86-.58,1.72,0,2.58.86.57,1.72.57,2.58,0l3.86,3.43-3.86,3.43-3.43-3.43c.57-.86.57-1.72,0-2.58-.86-.57-1.86-.57-3,0-.86-.57-1.72-.57-2.57,0-.58.86-.58,1.72,0,2.58l-3.86,3.43-3.43-3.43c.57-.86.57-1.72,0-2.58-.86-.57-1.86-.57-3,0-.86-.57-1.72-.57-2.58,0-.58.86-.58,1.72,0,2.58l-3.86,3.43-6.01-6.01c-.86-.86-1.86-.86-3,0-.86,1.15-.86,2.15,0,3l6.01,6.01-3.43,3.86c-.86-.57-1.72-.57-2.58,0-.58.86-.58,1.86,0,3H.21c-.29.86-.15,1.72.43,2.58.86.58,1.72.58,2.58,0l3.43,3.43-3.43,3.86c-.86-.57-1.72-.57-2.58,0-.58.86-.58,1.86,0,3H.21c-.29.86-.15,1.72.43,2.58.86.58,1.72.58,2.58,0l3.43,3.43-6.01,6.01c-.86,1.15-.86,2.29,0,3.43,1.14.86,2.15.86,3,0l6.01-6.44,3.86,3.86h-.43c-.29.86-.15,1.72.43,2.58.86.58,1.86.58,3,0,.86.58,1.72.58,2.58,0,.57-.86.57-1.72,0-2.58l3.43-3.86,3.86,3.86h-.43c-.29.86-.15,1.72.43,2.58.86.58,1.86.58,3,0,.86.58,1.72.58,2.58,0,.57-.86.57-1.72,0-2.58l3.43-3.86,3.65,3.65-.21.21h0l-3.43,3.43v-.43c-.86-.29-1.72-.15-2.58.43-.58.86-.58,1.86,0,3-.58.86-.58,1.72,0,2.58.86.57,1.72.57,2.58,0l3.86,3.43-3.86,3.86v-.43c-.86-.29-1.72-.15-2.58.43-.58.86-.58,1.86,0,3-.58.86-.58,1.72,0,2.58.86.57,1.72.57,2.58,0l3.86,3.43-6.44,6.01c-.86,1.14-.86,2.29,0,3.43,1.14.86,2.29.86,3.43,0l6.01-6.44,3.43,3.86c-.58.86-.58,1.72,0,2.58.86.57,1.86.57,3,0,.86.57,1.72.57,2.58,0,.57-.86.57-1.72,0-2.58l3.86-3.86,3.43,3.86c-.58.86-.58,1.72,0,2.58.86.57,1.86.57,3,0,.86.57,1.72.57,2.58,0,.57-.86.57-1.72,0-2.58l3.86-3.86,6.01,6.44c.86.86,1.86.86,3,0,.86-1.15.86-2.29,0-3.43l-6.01-6.01,3.43-3.43c.86.57,1.72.57,2.57,0,.57-.86.57-1.86,0-3,.57-.86.57-1.72,0-2.57-.86-.58-1.72-.58-2.57,0l-3.43-3.86,3.43-3.43c.86.57,1.72.57,2.57,0,.57-.86.57-1.86,0-3,.57-.86.57-1.72,0-2.58-.86-.58-1.72-.58-2.57,0l-3.43-3.86,3.22-3.22,3.65,3.65h-.43c-.29.86-.15,1.72.43,2.58.86.58,1.86.58,3,0,.86.58,1.72.58,2.58,0,.57-.86.57-1.72,0-2.58l3.43-3.86,3.86,3.86h-.43c-.29.86-.15,1.72.43,2.58.86.58,1.86.58,3,0,.86.58,1.72.58,2.58,0,.57-.86.57-1.72,0-2.58l3.43-3.86,6.01,6.44c1.14.86,2.29.86,3.43,0,.86-1.14.86-2.29,0-3.43l-6.44-6.01ZM103.22,48.28l-3.43,3.43-3.43-3.43,3.43-3.43,3.43,3.43ZM96.78,54.72l-3.43,3.43-3.43-3.43,3.43-3.43,3.43,3.43ZM93.35,38.41l3.43,3.43-3.43,3.43-3.43-3.43,3.43-3.43ZM90.35,48.28l-3.43,3.43-3.43-3.43,3.43-3.43,3.43,3.43ZM74.06,64.57l-3.03-3.41,3.22-3.22,3.22,3.22-3.41,3.41ZM35.41,44.85s0,0,0,0h0s3.43,3.43,3.43,3.43l-3.43,3.43-3.43-3.43,3.43-3.43ZM77.47,48.28l-3.41,3.41-3.03-3.41,3.22-3.22,3.22,3.22ZM67.81,70.82l-3.22-3.22,3.22-3.22,3.22,3.22-3.22,3.22ZM61.59,77.47l-3.43-3.43,3.22-3.22,3.43,3.43-3.22,3.22ZM64.59,48.28l-3.22,3.22-3.22-3.22,3.22-3.22,3.22,3.22ZM51.72,54.72l3.22-3.22,3.22,3.22-3.22,3.22-3.22-3.22ZM58.16,41.85l-3.22,3.22-3.22-3.22,3.22-3.22,3.22,3.22ZM51.72,67.6l3.22-3.22,3.22,3.22-3.22,3.22-3.22-3.22ZM58.16,61.16l3.22-3.22,3.22,3.22-3.22,3.22-3.22-3.22ZM64.59,54.72l3.22-3.22,3.22,3.22-3.22,3.22-3.22-3.22ZM71.03,41.85l-3.22,3.22-3.22-3.22,3.22-3.22,3.22,3.22ZM65.02,35.41l-3.64,3.23-3.23-3.23,3.43-3.43,3.43,3.43h0ZM51.72,48.28l-3.22,3.22-3.22-3.22,3.22-3.22,3.22,3.22ZM38.84,54.72l3.22-3.22,3.22,3.22-3.22,3.22-3.22-3.22ZM45.28,41.85l-3.22,3.22-3.22-3.22,3.22-3.22,3.22,3.22ZM42.06,64.38l3.22,3.22-3.22,3.22-3.22-3.22,3.22-3.22ZM45.28,61.16l3.22-3.22,3.22,3.22-3.22,3.22-3.22-3.22ZM61.59,25.97l-3.43-3.43,3.43-3.43,3.43,3.43-3.43,3.43ZM58.59,28.97l-3.43,3.43-3.43-3.43,3.43-3.43,3.43,3.43ZM48.71,25.97l-3.43-3.43,3.43-3.43,3.43,3.43-3.43,3.43ZM52.15,35.41l-3.64,3.23-3.23-3.23,3.43-3.43,3.43,3.43ZM32.4,54.72l-3.43,3.43-3.43-3.43,3.43-3.43,3.43,3.43ZM35.41,57.73l3.43,3.43-3.43,3.43-3.43-3.43,3.43-3.43ZM48.5,70.82l3.43,3.43-3.22,3.22-3.43-3.43,3.22-3.22ZM52.15,86.91l-3.43,3.43-3.43-3.43,3.43-3.43,3.43,3.43ZM51.72,80.47l3.43-3.43,3.43,3.43-3.43,3.43-3.43-3.43ZM61.59,83.48l3.43,3.43-3.43,3.43-3.43-3.43,3.43-3.43ZM77.04,54.72l3.43-3.43,3.43,3.43-3.43,3.43-3.43-3.43ZM80.47,38.41l3.43,3.43-3.43,3.43-3.43-3.43,3.43-3.43ZM71.46,28.97l-3.43,3.43-3.43-3.43,3.43-3.43,3.43,3.43ZM71.46,16.1l-3.43,3.43-3.43-3.43,3.43-3.43,3.43,3.43ZM61.59,6.22l3.43,3.43-3.43,3.43-3.43-3.43,3.43-3.43ZM58.59,16.1l-3.43,3.43-3.43-3.43,3.43-3.43,3.43,3.43ZM48.71,6.22l3.43,3.43-3.43,3.43-3.43-3.43,3.43-3.43ZM38.84,16.1l3.43-3.43,3.43,3.43-3.43,3.43-3.43-3.43ZM42.28,25.54l3.43,3.43-3.43,3.43-3.43-3.43,3.43-3.43ZM28.97,38.41l3.43,3.43-3.43,3.43-3.43-3.43,3.43-3.43ZM25.97,48.28l-3.43,3.43-3.43-3.43,3.43-3.43,3.43,3.43ZM19.53,54.72l-3.43,3.43-3.43-3.43,3.43-3.43,3.43,3.43ZM16.1,38.41l3.43,3.43-3.43,3.43-3.43-3.43,3.43-3.43ZM6.22,48.28l3.43-3.43,3.43,3.43-3.43,3.43-3.43-3.43ZM6.22,61.16l3.43-3.43,3.43,3.43-3.43,3.43-3.43-3.43ZM16.1,71.03l-3.43-3.43,3.43-3.43,3.43,3.43-3.43,3.43ZM19.1,61.16l3.43-3.43,3.43,3.43-3.43,3.43-3.43-3.43ZM28.97,71.03l-3.43-3.43,3.43-3.43,3.43,3.43-3.43,3.43ZM38.84,80.47l3.43-3.43,3.43,3.43-3.43,3.43-3.43-3.43ZM38.84,93.35l3.43-3.43,3.43,3.43-3.43,3.43-3.43-3.43ZM48.71,103.22l-3.43-3.43,3.43-3.43,3.43,3.43-3.43,3.43ZM51.72,93.35l3.43-3.43,3.43,3.43-3.43,3.43-3.43-3.43ZM61.59,103.22l-3.43-3.43,3.43-3.43,3.43,3.43-3.43,3.43ZM71.46,93.35l-3.43,3.43-3.43-3.43,3.43-3.43,3.43,3.43ZM71.46,80.47l-3.43,3.43-3.43-3.43,3.43-3.43,3.43,3.43ZM80.47,71.03l-3.43-3.43,3.43-3.43,3.43,3.43-3.43,3.43ZM83.48,61.16l3.43-3.43,3.43,3.43-3.43,3.43-3.43-3.43ZM93.35,71.03l-3.43-3.43,3.43-3.43,3.43,3.43-3.43,3.43ZM96.35,61.16l3.43-3.43,3.43,3.43-3.43,3.43-3.43-3.43Z"/>
  </g>
</svg>